# xmcd
#
# Track frame offsets:
#	150
#	18883
#	34885
#	50590
#	66703
#	83025
#	100402
#	115679
#	132852
#	148740
#	167077
#	186511
#
# Disc length: 2628 seconds
#
# Revision: 0
# Processed by: cddbd v1.5.1PL0 Copyright (c) Steve Scherf et al.
# Submitted via: dBpowerAMP V4.0
#
DISCID=ad0a420c
DTITLE=Various Artist - CDX Volume 382 October 2005
DYEAR=2005
DGENRE=Country
TTITLE0=Brice Long - Anywhere But Here
TTITLE1=Ryan Shupe and The Rubberband - Banjo Boy
TTITLE2=Dolly Parton - Imagine
TTITLE3=Rodney Crowell - Say You Love Me
TTITLE4=Jack Ingram - Wherever You Are
TTITLE5=Charlie Louvin - The Old Days
TTITLE6=Jason Thomas - Somebody Down Here Loves Me
TTITLE7=Derik Schumacher - She's Got What Gets Me
TTITLE8=Mike Lee - Texas Tea
TTITLE9=Skyla Spencer - You Said You'd Call Me
TTITLE10=Pat Boone and Friends - Thank You Billy Graham
TTITLE11=Rich Eckhardt - Workin' For Peanuts
EXTD=
EXTT0=
EXTT1=
EXTT2=
EXTT3=
EXTT4=
EXTT5=
EXTT6=
EXTT7=
EXTT8=
EXTT9=
EXTT10=
EXTT11=
PLAYORDER=
